<svg width="100" height="36" viewBox="0 0 100 36" fill="none" xmlns="http://www.w3.org/2000/svg">
<g clip-path="url(#clip0_2537_489)">
<path d="M68.347 4.71864C66.6764 3.20926 64.7128 2.05158 62.456 1.23095C60.1993 0.410316 57.7374 0 55.0996 0C52.4619 0 50 0.410316 47.7433 1.23095C45.4719 2.05158 43.5229 3.20926 41.8669 4.71864C40.211 6.22802 38.9215 8.05979 37.9689 10.214C37.0311 12.3681 36.5475 14.786 36.5475 17.4678C36.5475 20.1495 37.0164 22.5821 37.9689 24.7802C38.9068 26.9783 40.211 28.8687 41.8669 30.422C43.5229 31.9754 45.4719 33.177 47.7433 34.027C50 34.8769 52.4619 35.3019 55.0996 35.3019C57.7374 35.3019 60.1993 34.8769 62.456 34.027C64.7128 33.177 66.6911 31.9754 68.347 30.422C70.0176 28.8687 71.3218 26.9783 72.2597 24.7802C73.1975 22.5821 73.6811 20.1348 73.6811 17.4678C73.6811 14.8007 73.2122 12.3828 72.2597 10.214C71.3218 8.05979 70.0176 6.22802 68.347 4.71864ZM61.2104 20.4865C60.8734 21.3951 60.4191 22.1864 59.8183 22.8458C59.2175 23.5053 58.5287 24.0182 57.7227 24.3845C56.9168 24.7509 56.0522 24.9267 55.0996 24.9267C54.1471 24.9267 53.2679 24.7509 52.4619 24.3845C51.6413 24.0182 50.9525 23.5053 50.3664 22.8458C49.7802 22.1864 49.3259 21.3951 49.0035 20.4865C48.6665 19.578 48.5053 18.5668 48.5053 17.4678C48.5053 16.3687 48.6665 15.4162 49.0035 14.5223C49.3406 13.6284 49.7948 12.8664 50.3664 12.2509C50.9525 11.6354 51.6413 11.1518 52.4619 10.8148C53.2825 10.4631 54.1618 10.3019 55.0996 10.3019C56.0375 10.3019 56.9168 10.4777 57.7227 10.8148C58.5287 11.1665 59.2175 11.6354 59.8183 12.2509C60.4191 12.8664 60.8734 13.6137 61.2104 14.5223C61.5475 15.4162 61.7087 16.3687 61.7087 17.4678C61.7087 18.5668 61.5475 19.578 61.2104 20.4865Z" fill="black"/>
<path d="M87.5 24.8242V1.08441H76.1723V25.762C76.1723 30.5979 80.085 34.5252 84.9355 34.5252H100.029V24.8388H87.5147L87.5 24.8242Z" fill="black"/>
<path d="M19.3288 0C14.8154 0 10.8001 2.88687 9.34935 7.16588L0.0732708 34.5105H11.9578L13.5111 29.6454H25.1172L26.6706 34.5105H38.5551L29.279 7.16588C27.8429 2.88687 23.8423 0 19.3288 0ZM16.2661 21.0434L19.3142 11.4889L22.3623 21.0434H16.2515H16.2661Z" fill="black"/>
</g>
<defs>
<clipPath id="clip0_2537_489">
<rect width="100" height="35.3165" fill="white"/>
</clipPath>
</defs>
</svg>
